<svg xmlns="http://www.w3.org/2000/svg" viewBox="0 0 1200 1200" role="img" aria-label="Hero artwork placeholder — drop your retro-futuristic art here"><defs><linearGradient id="hk-sky" x1="0" y1="0" x2="0" y2="1"><stop offset="0" stop-color="#091717"/><stop offset="0.55" stop-color="#1c2f44"/><stop offset="0.85" stop-color="#c95a37"/><stop offset="1" stop-color="#f3b05c"/></linearGradient><linearGradient id="hk-mountain-far" x1="0" y1="0" x2="0" y2="1"><stop offset="0" stop-color="#28425e"/><stop offset="1" stop-color="#1a2a3d"/></linearGradient><linearGradient id="hk-mountain-near" x1="0" y1="0" x2="0" y2="1"><stop offset="0" stop-color="#0f1d29"/><stop offset="1" stop-color="#091317"/></linearGradient><radialGradient id="hk-sun" cx="0.78" cy="0.32" r="0.18"><stop offset="0" stop-color="#fff5d2"/><stop offset="0.6" stop-color="#f3b05c"/><stop offset="1" stop-color="#f3b05c" stop-opacity="0"/></radialGradient></defs><rect width="1200" height="1200" fill="url(#hk-sky)"/><circle cx="936" cy="384" r="220" fill="url(#hk-sun)"/><g fill="#fff" opacity="0.8"><circle cx="120" cy="160" r="2"/><circle cx="240" cy="80" r="1.5"/><circle cx="360" cy="200" r="1"/><circle cx="540" cy="120" r="2.2"/><circle cx="720" cy="60" r="1.4"/><circle cx="800" cy="180" r="1.2"/><circle cx="180" cy="280" r="1.6"/><circle cx="420" cy="40" r="1.8"/><circle cx="660" cy="240" r="1"/><circle cx="900" cy="100" r="1.3"/><circle cx="1080" cy="200" r="1.6"/><circle cx="60" cy="380" r="1"/><circle cx="300" cy="340" r="1.4"/></g><path fill="url(#hk-mountain-far)" d="M0 760 L120 660 L260 720 L380 600 L520 700 L660 580 L820 720 L960 640 L1100 730 L1200 680 L1200 1200 L0 1200 Z"/><path fill="url(#hk-mountain-near)" d="M0 880 L160 780 L320 860 L500 760 L680 880 L860 800 L1040 880 L1200 820 L1200 1200 L0 1200 Z"/><circle cx="600" cy="1000" r="22" fill="#091717"/><rect x="582" y="1018" width="36" height="120" fill="#091717" rx="6"/><g font-family="'Roboto Slab', serif" fill="#f8f4ec" opacity="0.6" text-anchor="middle"><text x="600" y="600" font-size="44" font-weight="700">drop your hero art here</text><text x="600" y="650" font-size="22">replace docs/assets/art/hero.svg with hero.webp etc.</text></g></svg>
