<svg xmlns="http://www.w3.org/2000/svg" xmlns:xlink="http://www.w3.org/1999/xlink" width="2000" height="2000" viewBox="0 0 1500 1499.999933" zoomAndPan="magnify" preserveAspectRatio="xMidYMid meet" role="img" aria-label="Helakit"><defs><g/><clipPath id="hk-tick-box"><path d="M 126.429688 446.429688 L 482.679688 446.429688 L 482.679688 846.929688 L 126.429688 846.929688 Z M 126.429688 446.429688"/></clipPath></defs><path fill="#20808d" d="M 212.664062 621.605469 C 208.804688 617.742188 202.539062 617.742188 198.675781 621.601562 C 194.8125 625.464844 194.808594 631.726562 198.671875 635.59375 L 251.101562 688.0625 C 252.953125 689.917969 255.472656 690.960938 258.09375 690.960938 L 258.097656 690.960938 C 260.71875 690.960938 263.238281 689.921875 265.09375 688.066406 L 456.859375 496.296875 C 460.726562 492.433594 460.726562 486.167969 456.859375 482.308594 C 453 478.441406 446.734375 478.441406 442.871094 482.308594 L 258.101562 667.078125 L 212.664062 621.609375 Z"/><g clip-path="url(#hk-tick-box)"><path fill="#20808d" d="M 86.136719 946.882812 L 508.035156 946.882812 C 544.898438 946.882812 574.886719 916.894531 574.886719 880.035156 L 574.886719 355.578125 C 574.886719 318.71875 544.898438 288.730469 508.035156 288.730469 L 407.644531 288.730469 L 403.019531 270.539062 C 399.734375 257.710938 388.195312 248.75 374.960938 248.75 L 219.210938 248.75 C 205.761719 248.75 194.488281 257.507812 191.152344 270.539062 C 191.152344 270.546875 191.148438 270.550781 191.148438 270.554688 L 186.527344 288.726562 L 86.132812 288.726562 C 49.273438 288.726562 19.285156 318.714844 19.285156 355.578125 L 19.285156 880.03125 C 19.285156 916.894531 49.273438 946.882812 86.132812 946.882812 Z M 187.039062 367.03125 L 210.320312 275.445312 C 211.394531 271.246094 214.882812 268.535156 219.210938 268.535156 L 374.960938 268.535156 C 379.222656 268.535156 382.792969 271.3125 383.847656 275.429688 L 407.128906 367.019531 C 407.226562 367.410156 407.207031 367.515625 407.019531 367.753906 C 406.699219 368.164062 406.566406 368.164062 406.25 368.164062 L 187.921875 368.164062 C 187.484375 368.164062 187.425781 368.101562 187.152344 367.753906 C 186.972656 367.527344 186.929688 367.472656 187.042969 367.03125 Z M 187.921875 387.949219 L 406.25 387.949219 C 412.714844 387.949219 418.496094 385.136719 422.59375 379.957031 C 426.589844 374.808594 427.910156 368.492188 426.304688 362.15625 L 424.273438 354.152344 L 508.035156 354.152344 C 508.824219 354.152344 509.460938 354.792969 509.460938 355.582031 L 509.460938 880.035156 C 509.460938 880.828125 508.808594 881.503906 508.035156 881.503906 L 86.136719 881.503906 C 85.363281 881.503906 84.710938 880.832031 84.710938 880.035156 L 84.710938 355.578125 C 84.710938 354.792969 85.351562 354.152344 86.136719 354.152344 L 169.898438 354.152344 L 167.863281 362.167969 C 166.242188 368.566406 167.582031 374.90625 171.578125 379.957031 C 175.578125 385.109375 181.382812 387.945312 187.921875 387.945312 Z M 39.070312 355.578125 C 39.070312 329.628906 60.183594 308.515625 86.136719 308.515625 L 181.5 308.515625 L 174.929688 334.367188 L 86.136719 334.367188 C 74.441406 334.367188 64.925781 343.882812 64.925781 355.578125 L 64.925781 880.035156 C 64.925781 891.753906 74.441406 901.285156 86.136719 901.285156 L 508.035156 901.285156 C 519.730469 901.285156 529.246094 891.753906 529.246094 880.035156 L 529.246094 355.578125 C 529.246094 343.882812 519.730469 334.367188 508.035156 334.367188 L 419.242188 334.367188 L 412.671875 308.515625 L 508.035156 308.515625 C 533.988281 308.515625 555.101562 329.628906 555.101562 355.578125 L 555.101562 880.035156 C 555.101562 905.984375 533.988281 927.097656 508.035156 927.097656 L 86.136719 927.097656 C 60.183594 927.097656 39.070312 905.984375 39.070312 880.035156 Z"/></g><path fill="#20808d" d="M 134.371094 546.742188 L 134.371094 718.179688 C 134.371094 739.148438 151.429688 756.207031 172.398438 756.207031 L 343.835938 756.207031 C 364.804688 739.148438 381.863281 739.148438 381.863281 718.179688 L 381.863281 683.011719 C 381.863281 677.546875 377.433594 673.117188 371.96875 673.117188 C 366.507812 673.117188 362.078125 677.546875 362.078125 683.011719 L 362.078125 718.179688 C 362.078125 728.238281 353.894531 736.421875 343.835938 736.421875 L 172.398438 736.421875 C 162.339844 736.421875 154.15625 728.238281 154.15625 718.179688 L 154.15625 546.742188 C 154.15625 536.683594 162.339844 528.5 172.398438 528.5 L 304.785156 528.5 C 310.25 528.5 314.679688 524.070312 314.679688 518.605469 C 314.679688 513.144531 310.25 508.714844 304.785156 508.714844 L 172.398438 508.714844 C 151.429688 508.714844 134.371094 525.773438 134.371094 546.742188 Z"/><g fill="currentColor" fill-opacity="1"><g transform="translate(442.206617, 753.022307)"><g><path d="M 154.171875 -103.40625 L 154.171875 -190.34375 L 176.046875 -190.34375 L 176.046875 0 L 154.171875 0 L 154.171875 -84.515625 L 41.84375 -84.515625 L 41.84375 0 L 19.703125 0 L 19.703125 -190.34375 L 41.84375 -190.34375 L 41.84375 -103.40625 Z M 154.171875 -103.40625"/></g></g></g><g fill="currentColor" fill-opacity="1"><g transform="translate(638.226293, 753.022307)"><g><path d="M 14.3125 -68.84375 C 14.3125 -83.25 17.097656 -95.535156 22.671875 -105.703125 C 28.253906 -115.867188 35.953125 -123.609375 45.765625 -128.921875 C 55.578125 -134.234375 66.78125 -136.890625 79.375 -136.890625 C 98.28125 -136.890625 113.445312 -131.171875 124.875 -119.734375 C 136.300781 -108.304688 142.015625 -92.242188 142.015625 -71.546875 L 142.015625 -62.90625 L 35.90625 -62.90625 C 36.445312 -54.445312 38.25 -46.617188 41.3125 -39.421875 C 44.375 -32.222656 49.28125 -26.460938 56.03125 -22.140625 C 62.78125 -17.816406 71.644531 -15.65625 82.625 -15.65625 C 93.78125 -15.65625 102.957031 -18.3125 110.15625 -23.625 C 117.351562 -28.9375 122.125 -36.722656 124.46875 -46.984375 L 146.609375 -46.984375 C 145.347656 -41.765625 143.273438 -36.273438 140.390625 -30.515625 C 137.515625 -24.753906 133.601562 -19.351562 128.65625 -14.3125 C 123.707031 -9.269531 117.453125 -5.171875 109.890625 -2.015625 C 102.328125 1.128906 93.238281 2.703125 82.625 2.703125 C 66.601562 2.703125 53.550781 -0.582031 43.46875 -7.15625 C 33.382812 -13.726562 26.003906 -22.457031 21.328125 -33.34375 C 16.648438 -44.238281 14.3125 -56.070312 14.3125 -68.84375 Z M 35.90625 -79.65625 L 120.421875 -79.65625 C 120.421875 -90.445312 116.910156 -99.578125 109.890625 -107.046875 C 102.867188 -114.523438 92.695312 -118.265625 79.375 -118.265625 C 66.238281 -118.265625 55.707031 -114.523438 47.78125 -107.046875 C 39.863281 -99.578125 35.90625 -90.445312 35.90625 -79.65625 Z M 35.90625 -79.65625"/></g></g></g><g fill="currentColor" fill-opacity="1"><g transform="translate(799.146024, 753.022307)"><g><path d="M 108.8125 0 L 11.609375 0 L 11.609375 -18.90625 L 49.40625 -18.90625 L 49.40625 -181.984375 L 21.59375 -179.546875 L 21.59375 -198.453125 L 52.921875 -201.15625 C 59.222656 -201.6875 63.859375 -200.285156 66.828125 -196.953125 C 69.796875 -193.628906 71.28125 -188.816406 71.28125 -182.515625 L 71.28125 -18.90625 L 108.8125 -18.90625 Z M 108.8125 0"/></g></g></g><g fill="currentColor" fill-opacity="1"><g transform="translate(917.135836, 753.022307)"><g><path d="M 14.3125 -37.265625 C 14.3125 -47.878906 17.726562 -56.648438 24.5625 -63.578125 C 31.40625 -70.515625 42.65625 -74.789062 58.3125 -76.40625 L 111.78125 -81.546875 C 111.0625 -93.785156 107.503906 -102.960938 101.109375 -109.078125 C 94.722656 -115.203125 85.679688 -118.265625 73.984375 -118.265625 C 67.503906 -118.265625 61.425781 -117.179688 55.75 -115.015625 C 50.082031 -112.859375 45.445312 -109.304688 41.84375 -104.359375 C 38.25 -99.410156 36.453125 -92.703125 36.453125 -84.234375 L 14.84375 -84.234375 C 14.84375 -93.597656 17.140625 -102.238281 21.734375 -110.15625 C 26.328125 -118.082031 33.03125 -124.519531 41.84375 -129.46875 C 50.664062 -134.414062 61.378906 -136.890625 73.984375 -136.890625 C 86.578125 -136.890625 97.328125 -134.320312 106.234375 -129.1875 C 115.148438 -124.0625 121.992188 -116.953125 126.765625 -107.859375 C 131.535156 -98.773438 133.921875 -88.203125 133.921875 -76.140625 L 133.921875 -18.90625 L 153.625 -18.90625 L 153.625 0 L 129.875 0 C 119.25 0 113.9375 -5.21875 113.9375 -15.65625 L 113.9375 -22.953125 L 117.453125 -36.984375 L 110.96875 -36.984375 C 109.351562 -30.148438 106.519531 -23.71875 102.46875 -17.6875 C 98.414062 -11.65625 92.878906 -6.75 85.859375 -2.96875 C 78.835938 0.8125 69.925781 2.703125 59.125 2.703125 C 49.40625 2.703125 41.578125 1.304688 35.640625 -1.484375 C 29.703125 -4.273438 25.203125 -7.785156 22.140625 -12.015625 C 19.078125 -16.242188 17.003906 -20.648438 15.921875 -25.234375 C 14.847656 -29.828125 14.3125 -33.835938 14.3125 -37.265625 Z M 36.453125 -39.953125 C 36.453125 -32.210938 38.742188 -26.316406 43.328125 -22.265625 C 47.921875 -18.222656 54.085938 -16.203125 61.828125 -16.203125 C 72.085938 -16.203125 80.953125 -18.359375 88.421875 -22.671875 C 95.890625 -26.992188 101.648438 -32.84375 105.703125 -40.21875 C 109.753906 -47.601562 111.78125 -55.882812 111.78125 -65.0625 L 62.09375 -59.9375 C 53.632812 -59.21875 47.242188 -57.375 42.921875 -54.40625 C 38.609375 -51.4375 36.453125 -46.617188 36.453125 -39.953125 Z M 36.453125 -39.953125"/></g></g></g><g fill="currentColor" fill-opacity="1"><g transform="translate(1076.975545, 753.022307)"><g><path d="M 139.859375 0 L 114.75 0 L 69.9375 -62.375 L 41.84375 -46.984375 L 41.84375 0 L 19.703125 0 L 19.703125 -198.453125 L 41.84375 -198.453125 L 41.84375 -70.203125 L 110.15625 -107.453125 L 107.453125 -134.1875 L 129.59375 -134.1875 L 131.765625 -109.625 C 132.484375 -100.976562 128.878906 -94.5 120.953125 -90.1875 L 88.015625 -72.09375 Z M 139.859375 0"/></g></g></g><g fill="currentColor" fill-opacity="1"><g transform="translate(1228.715307, 753.022307)"><g><path d="M 59.125 -155.515625 C 53.550781 -155.515625 48.914062 -157.3125 45.21875 -160.90625 C 41.53125 -164.507812 39.6875 -169.015625 39.6875 -174.421875 C 39.6875 -179.640625 41.53125 -184.046875 45.21875 -187.640625 C 48.914062 -191.242188 53.550781 -193.046875 59.125 -193.046875 C 64.53125 -193.046875 69.117188 -191.242188 72.890625 -187.640625 C 76.671875 -184.046875 78.5625 -179.640625 78.5625 -174.421875 C 78.5625 -169.015625 76.671875 -164.507812 72.890625 -160.90625 C 69.117188 -157.3125 64.53125 -155.515625 59.125 -155.515625 Z M 110.703125 0 L 14.3125 0 L 14.3125 -18.90625 L 52.109375 -18.90625 L 52.109375 -117.71875 L 24.296875 -115.296875 L 24.296875 -134.1875 L 55.34375 -136.890625 C 61.644531 -137.429688 66.144531 -136.171875 68.84375 -133.109375 C 71.550781 -130.046875 72.90625 -125.90625 72.90625 -120.6875 L 72.90625 -18.90625 L 110.703125 -18.90625 Z M 110.703125 0"/></g></g></g><g fill="currentColor" fill-opacity="1"><g transform="translate(1348.325098, 753.022307)"><g><path d="M 57.78125 -115.296875 L 57.78125 -15.9375 L 105.03125 -18.90625 L 105.03125 0 L 54.265625 2.703125 C 47.960938 3.054688 43.328125 1.613281 40.359375 -1.625 C 37.390625 -4.863281 35.90625 -9.539062 35.90625 -15.65625 L 35.90625 -115.296875 L 6.203125 -115.296875 L 6.203125 -134.1875 L 35.90625 -134.1875 L 35.90625 -168.75 L 57.78125 -175.5 L 57.78125 -134.1875 L 99.625 -134.1875 L 99.625 -115.296875 Z M 57.78125 -115.296875"/></g></g></g></svg>
